<svg fill="none" height="24" viewBox="0 0 24 24" width="24" xmlns="http://www.w3.org/2000/svg"><g fill=#ffa200><g  stroke-width="1"><path d="m15 22.75h-6c-5.43 0-7.75-2.32-7.75-7.75v-6c0-5.43 2.32-7.75 7.75-7.75h2c.41 0 .75.34.75.75s-.34.75-.75.75h-2c-4.61 0-6.25 1.64-6.25 6.25v6c0 4.61 1.64 6.25 6.25 6.25h6c4.61 0 6.25-1.64 6.25-6.25v-2c0-.41.34-.75.75-.75s.75.34.75.75v2c0 5.43-2.32 7.75-7.75 7.75z"/><path d="m8.49935 17.6901c-.61 0-1.17-.22-1.58-.62-.49-.49-.7-1.2-.59-1.95l.43-3.01c.08-.58.46-1.33.87-1.74l7.87995-7.88004c1.99-1.990001 4.01-1.990001 6 0 1.09 1.09 1.58 2.2 1.48 3.31-.09.9-.57 1.78-1.48 2.68l-7.88 7.88004c-.41.41-1.16.79-1.74.87l-3.00995.43c-.13.03-.26.03-.38.03zm8.06995-14.14004-7.87995 7.88004c-.19.19-.41.63-.45.89l-.43 3.01c-.04.29.02.53.17.68s.39.21.68.17l3.00995-.43c.26-.04.71-.26.89-.45l7.88-7.88004c.65-.65.99-1.23 1.04-1.77.06-.65-.28-1.34-1.04-2.11-1.6-1.6-2.7-1.15-3.87.01z"/><path d="m19.8496 9.82978c-.07 0-.14-.01-.2-.03-2.63-.74-4.72-2.83-5.46-5.46-.11-.4.12-.81.52-.93.4-.11.81.12.92.52.6 2.13 2.29 3.82 4.42 4.42.4.11.63.53.52.93-.09.34-.39.55-.72.55z"/></g></g></svg>